# xmcd CD database file
#
# Track frame offsets:
#	150
#	17651
#	35867
#	65911
#	84542
#	103675
#	122969
#	140405
#	160214
#	179352
#	195557
#	210858
#
# Disc length: 3127 seconds
#
# Revision: 1
# Processed by: cddbd v1.5.2PL0 Copyright (c) Steve Scherf et al.
# Submitted via: CDex 1.51
#
DISCID=aa0c350c
DTITLE=Dee Daniels - JazzInIt
DYEAR=2007
DGENRE=Jazz
TTITLE0=Can't Hide Love
TTITLE1=Deed I Do
TTITLE2=Another Star
TTITLE3=What a Fool Believes
TTITLE4=Hello
TTITLE5=Fire and Rain
TTITLE6=If
TTITLE7=Respect
TTITLE8=Love Me Tender
TTITLE9=Our Day Will Come
TTITLE10=Bye Bye Love
TTITLE11=The Thought of You
EXTD=YEAR: 2007
EXTT0=
EXTT1=
EXTT2=
EXTT3=
EXTT4=
EXTT5=
EXTT6=
EXTT7=
EXTT8=
EXTT9=
EXTT10=
EXTT11=
PLAYORDER=
